<svg xmlns="http://www.w3.org/2000/svg" xmlns:xlink="http://www.w3.org/1999/xlink" width="967.559" height="967.559" viewBox="0 0 256 256" xmlns:v="https://vecta.io/nano"><style><![CDATA[.B{color-interpolation-filters:sRGB}.C{opacity:.609}.D{font-family:sans-serif}]]></style><defs><linearGradient id="A" xlink:href="#h"><stop offset="0" stop-color="#00eeb5"/><stop offset="1" stop-color="#00c7b3" stop-opacity="0"/></linearGradient><linearGradient id="B" xlink:href="#h"><stop offset="0" stop-color="#002eb3"/><stop offset="1" stop-color="#00c7b3" stop-opacity="0"/></linearGradient><linearGradient id="C" xlink:href="#h"><stop offset="0" stop-color="#00f591"/><stop offset="1" stop-color="#0000b3" stop-opacity="0"/></linearGradient><linearGradient id="D" xlink:href="#h"><stop offset="0" stop-color="#002248"/><stop offset="1" stop-color="#00ceb3" stop-opacity=".638"/></linearGradient><linearGradient id="E" xlink:href="#h"><stop offset="0" stop-color="#00dd91"/><stop offset="1" stop-color="#0000b3" stop-opacity="0"/></linearGradient><linearGradient id="F" xlink:href="#h"><stop offset="0" stop-color="#00c7b3"/><stop offset="1" stop-color="#00c7b3" stop-opacity="0"/></linearGradient><linearGradient xlink:href="#B" id="G" x1="153.103" y1="155.526" x2="199.763" y2="155.526"/><linearGradient xlink:href="#C" id="H" x1="125.803" y1="144.376" x2="199.6" y2="144.376"/><linearGradient xlink:href="#F" id="I" x1="60.946" y1="195.304" x2="138.554" y2="195.304"/><linearGradient xlink:href="#A" id="J" x1="71.698" y1="114.189" x2="150.778" y2="126.558"/><linearGradient xlink:href="#D" id="K" x1="94.106" y1="95.188" x2="140.515" y2="95.188"/><linearGradient xlink:href="#E" id="L" x1="94.151" y1="108.433" x2="125.803" y2="144.376"/><linearGradient xlink:href="#E" id="M" x1="94.151" y1="108.433" x2="125.803" y2="144.376"/><linearGradient xlink:href="#D" id="N" x1="94.106" y1="95.188" x2="140.515" y2="95.188"/><linearGradient xlink:href="#A" id="O" x1="71.698" y1="114.189" x2="150.778" y2="126.558"/><linearGradient xlink:href="#F" id="P" x1="60.946" y1="195.304" x2="138.554" y2="195.304"/><linearGradient xlink:href="#C" id="Q" x1="125.803" y1="144.376" x2="199.6" y2="144.376"/><linearGradient xlink:href="#B" id="R" x1="153.103" y1="155.526" x2="199.763" y2="155.526"/><filter id="S" x="-.285" y="-.169" width="1.565" height="1.275" class="B"><feGaussianBlur stdDeviation="4.431"/></filter><filter id="T" x="-.182" y="-.118" width="1.357" height="1.208" class="B"><feGaussianBlur stdDeviation="4.431"/></filter><filter id="U" x="-.218" y="-.338" width="1.373" height="1.758" class="B"><feGaussianBlur stdDeviation="4.431"/></filter><filter id="V" x="-.171" y="-.061" width="1.322" height="1.13" class="B"><feGaussianBlur stdDeviation="4.431"/></filter><filter id="W" x="-.284" y="-.121" width="1.573" height="1.204" class="B"><feGaussianBlur stdDeviation="4.431"/></filter><filter id="X" x="-.218" y="-.139" width="1.439" height="1.244" class="B"><feGaussianBlur stdDeviation="4.431"/></filter><linearGradient xlink:href="#A" id="Y" x1="442.609" y1="668.289" x2="-61.399" y2="458.231"/><linearGradient xlink:href="#B" id="Z" x1="126.694" y1="608.139" x2="125.165" y2="566.376"/><filter id="a" x="-.071" y="-.296" width="1.143" height="1.593" class="B"><feGaussianBlur stdDeviation="10.201"/></filter><path id="b" d="M139.423 53.858l-44.343 110.99 57.177-86.418c.658.99-12.834-24.573-12.834-24.573z"/><path id="c" d="M126.918 28.131l12.505 25.727-44.343 110.99z"/><path id="d" d="M126.918 28.131L95.079 164.849l43.027 11.05-58.823 12.864-14.315 22.759c4.031-5.607 61.949-183.39 61.949-183.39z"/><path id="e" d="M138.106 175.898L63.735 213.17l15.549-24.408z"/><path id="f" d="M198.657 211.686l-46.564-132.76L127 127z"/><path id="g" d="M159.661 102.345l-5.512 33.396 44.672 76.44z"/><linearGradient id="h" gradientUnits="userSpaceOnUse"/></defs><text xml:space="preserve" transform="matrix(.264583 0 0 .264583 59.928343 52.555878)" style="white-space:pre" font-size="85.333" opacity=".815" fill="url(#Z)" filter="url(#a)" class="D"><tspan x="67.777" y="664.27">GooseSima</tspan></text><g fill="none" stroke-width="4"><use xlink:href="#b" stroke="url(#M)" filter="url(#X)" class="C"/><use xlink:href="#c" stroke="url(#N)" filter="url(#W)" class="C"/><use xlink:href="#d" stroke="url(#O)" filter="url(#V)" class="C"/><use xlink:href="#e" stroke="url(#P)" filter="url(#U)" class="C"/><use xlink:href="#f" stroke="url(#Q)" filter="url(#T)" class="C"/><use xlink:href="#g" stroke="url(#R)" filter="url(#S)" class="C"/><use xlink:href="#b" stroke="url(#L)"/><use xlink:href="#c" stroke="url(#K)"/><use xlink:href="#d" stroke="url(#J)"/><use xlink:href="#e" stroke="url(#I)"/><use xlink:href="#f" stroke="url(#H)"/><use xlink:href="#g" stroke="url(#G)"/></g><text xml:space="preserve" transform="matrix(.264583 0 0 .264583 60.610275 53.021142)" style="white-space:pre" font-size="85.333" fill="url(#Y)" class="D"><tspan x="67.777" y="664.27">GooseSima</tspan></text></svg>