<?xml version="1.0" encoding="UTF-8" standalone="no"?>
<!-- Created with Inkscape (http://www.inkscape.org/) -->

<svg
   width="512.0px"
   height="512.0px"
   viewBox="0 0 512.0 512.0"
   version="1.1"
   id="SVGRoot"
   sodipodi:docname="goosesima.svg"
   inkscape:version="1.1.1 (3bf5ae0d25, 2021-09-20)"
   xmlns:inkscape="http://www.inkscape.org/namespaces/inkscape"
   xmlns:sodipodi="http://sodipodi.sourceforge.net/DTD/sodipodi-0.dtd"
   xmlns:xlink="http://www.w3.org/1999/xlink"
   xmlns="http://www.w3.org/2000/svg"
   xmlns:svg="http://www.w3.org/2000/svg">
  <sodipodi:namedview
     id="namedview829"
     pagecolor="#505050"
     bordercolor="#eeeeee"
     borderopacity="1"
     inkscape:pageshadow="0"
     inkscape:pageopacity="0"
     inkscape:pagecheckerboard="0"
     inkscape:document-units="px"
     showgrid="true"
     inkscape:zoom="2.1795515"
     inkscape:cx="329.42557"
     inkscape:cy="328.50795"
     inkscape:window-width="1920"
     inkscape:window-height="1007"
     inkscape:window-x="0"
     inkscape:window-y="0"
     inkscape:window-maximized="1"
     inkscape:current-layer="layer1">
    <inkscape:grid
       type="xygrid"
       id="grid892" />
  </sodipodi:namedview>
  <defs
     id="defs824">
    <linearGradient
       inkscape:collect="always"
       id="linearGradient11663">
      <stop
         style="stop-color:#165044;stop-opacity:1;"
         offset="0"
         id="stop11659" />
      <stop
         style="stop-color:#5fd3bc;stop-opacity:1"
         offset="1"
         id="stop11661" />
    </linearGradient>
    <linearGradient
       inkscape:collect="always"
       xlink:href="#linearGradient11663"
       id="linearGradient11665"
       x1="0"
       y1="260"
       x2="520"
       y2="260"
       gradientUnits="userSpaceOnUse" />
    <filter
       inkscape:collect="always"
       style="color-interpolation-filters:sRGB"
       id="filter11825"
       x="-0.075305064"
       y="-0.075305064"
       width="1.1506101"
       height="1.1506101">
      <feGaussianBlur
         inkscape:collect="always"
         stdDeviation="16.316098"
         id="feGaussianBlur11827" />
    </filter>
  </defs>
  <g
     inkscape:label="Слой 1"
     inkscape:groupmode="layer"
     id="layer1">
    <rect
       style="fill:url(#linearGradient11665);fill-opacity:1;stroke:none;stroke-width:8.1;stroke-linecap:round;stroke-miterlimit:4;stroke-dasharray:none;filter:url(#filter11825)"
       id="rect11359"
       width="520"
       height="520"
       x="0"
       y="0" />
    <path
       style="fill:#e3dedb;stroke:none;stroke-width:1px;stroke-linecap:butt;stroke-linejoin:miter;stroke-opacity:1"
       d="m 0,460 c 80.284873,17.44672 101.5614,-326.74527 130,-360 98.99075,-115.75503 219.04257,32.75299 220,30 -11.08198,-2.13473 107.02451,86.43517 -32.81211,87.02613 C 175.25763,217.62593 220.83589,527.39934 270,515 H 0 v -55"
       id="path1017"
       sodipodi:nodetypes="cscsccc" />
    <path
       style="fill:#ffe680;stroke:none;stroke-width:1px;stroke-linecap:butt;stroke-linejoin:miter;stroke-opacity:1"
       d="m 345,125 c -31.58241,-4.99769 -64.32645,87.93459 -30.087,95.04891 44.75151,9.29853 109.96149,9.79582 144.19313,6.58492 37.57121,-3.52414 57.43398,-46.05485 -6.08336,-60.35207 C 341.59715,141.2008 355,130 345,125 Z"
       id="path4155"
       sodipodi:nodetypes="csssc" />
    <circle
       style="fill:#241c1c;fill-opacity:1;stroke:none;stroke-width:2.89134;stroke-linecap:round;stroke-miterlimit:4;stroke-dasharray:none"
       id="path6979"
       cx="232.30089"
       cy="139.86819"
       r="15" />
    <path
       style="fill:#241c1c;fill-opacity:1;stroke:none;stroke-width:2.89134;stroke-linecap:round;stroke-miterlimit:4;stroke-dasharray:none"
       id="path7192"
       d="m 496.89218,185.69902 c -0.39728,0.0357 -0.79871,0.0396 -1.19185,0.10704 -2.79281,0.47906 -5.52492,1.36832 -8.30152,1.9322 -4.78811,0.97237 -6.74264,1.2026 -11.78226,1.97553 -15.11816,2.1119 -30.38383,2.92934 -45.64113,2.93074 -4.05252,3.7e-4 -8.10447,-0.0973 -12.15671,-0.14587 -19.38357,-0.62963 -38.8404,-1.2243 -58.08672,-3.79766 -2.82075,-0.37715 -5.62522,-0.86748 -8.43783,-1.30122 -2.26824,-0.44568 -4.53649,-0.89136 -6.80474,-1.33704 0,0 -0.0396,0.005 -0.0396,0.005 v 0 c 2.26825,0.44573 4.53651,0.89147 6.80476,1.3372 2.81262,0.43379 5.61709,0.92417 8.43786,1.30137 19.24631,2.57364 38.70318,3.16829 58.08678,3.79807 4.07858,0.0486 8.15687,0.14625 12.23574,0.14586 15.25733,-0.001 30.52304,-0.81923 45.64121,-2.93129 5.17799,-0.79425 6.88244,-0.98613 11.7823,-1.97581 2.59391,-0.52392 4.01374,-0.93253 6.48962,-1.50186 1.93577,-0.44514 1.39343,-0.35255 2.80881,-0.51913 0,0 0.1553,-0.0236 0.1553,-0.0236 z" />
    <path
       style="fill:none;stroke:#000000;stroke-width:8.1;stroke-linecap:butt;stroke-linejoin:miter;stroke-opacity:1;stroke-miterlimit:4;stroke-dasharray:none"
       d="m 300,305 c 10.24603,-19.46408 14.14735,-48.52383 -16.3694,-41.50686 -27.74907,6.38058 -46.45495,95.50775 0.29034,95.50775 7.25736,0 17.47969,0.25495 22.49782,-6.15988 C 322.91891,331.74835 284.04887,316.67534 275,330"
       id="path10300" />
    <path
       style="fill:none;stroke:#000000;stroke-width:8.1;stroke-linecap:butt;stroke-linejoin:miter;stroke-opacity:1;stroke-miterlimit:4;stroke-dasharray:none"
       d="m 330,335 c -4.66505,2.32144 -8.07902,6.47738 -9.75561,11.50876 -5.01147,15.03921 11.41211,16.12476 17.63909,4.64008 C 344.18807,339.52102 334.82594,324.25614 325,340"
       id="path10308" />
    <path
       style="fill:none;stroke:#000000;stroke-width:8.1;stroke-linecap:butt;stroke-linejoin:miter;stroke-opacity:1;stroke-miterlimit:4;stroke-dasharray:none"
       d="m 360,335 c -4.66505,2.32144 -8.07902,6.47738 -9.75561,11.50876 -5.01147,15.03921 11.41211,16.12476 17.63909,4.64008 C 374.18807,339.52102 364.82594,324.25614 355,340"
       id="path10308-6" />
    <path
       style="fill:none;stroke:#000000;stroke-width:8.1;stroke-linecap:butt;stroke-linejoin:miter;stroke-miterlimit:4;stroke-dasharray:none;stroke-opacity:1"
       d="m 395,340 c -23.07623,-8.00725 5.82268,27.77799 -20,15"
       id="path10530" />
    <path
       style="fill:none;stroke:#000000;stroke-width:8.1;stroke-linecap:butt;stroke-linejoin:miter;stroke-opacity:1;stroke-miterlimit:4;stroke-dasharray:none"
       d="m 325,385 c 0.24488,-4.40466 -0.7446,-8.82219 -3.95309,-12.06275 -3.20493,-3.23697 -7.11399,-5.50086 -11.74983,-3.83895 -26.52929,9.5105 -2.52012,44.38545 -9.19054,63.98965 C 294.35846,449.98144 269.80539,435.18227 265,425"
       id="path10536" />
    <path
       style="fill:none;stroke:#000000;stroke-width:8.1;stroke-linecap:butt;stroke-linejoin:miter;stroke-opacity:1;stroke-miterlimit:4;stroke-dasharray:none"
       d="m 330,420 c -1.71798,6.65363 -3.22327,13.36182 -5,20"
       id="path10538" />
    <path
       style="fill:none;stroke:#000000;stroke-width:8.1;stroke-linecap:butt;stroke-linejoin:miter;stroke-opacity:1;stroke-miterlimit:4;stroke-dasharray:none"
       d="m 330,410 c 8.23215,-10.19374 0,5.94178 0,-5"
       id="path10540" />
    <path
       style="fill:none;stroke:#000000;stroke-width:8.1;stroke-linecap:butt;stroke-linejoin:miter;stroke-miterlimit:4;stroke-dasharray:none;stroke-opacity:1"
       d="m 345,420 c 1.94534,2.54504 2.20635,9.60128 0.34234,14.76906 -4.68135,12.97856 3.8131,-10.34186 11.06341,-13.6245 9.79446,-4.43452 5.73172,19.7116 2.69372,14.93104 C 355.16772,429.88867 385.3575,411.45737 375,445"
       id="path10542"
       sodipodi:nodetypes="csssc" />
    <path
       style="fill:none;stroke:#000000;stroke-width:8.1;stroke-linecap:butt;stroke-linejoin:miter;stroke-opacity:1;stroke-miterlimit:4;stroke-dasharray:none"
       d="m 400,425 c -16.63928,7.80001 0.61053,30.17551 10.96113,14.94143 C 420.81482,425.4387 409.13917,415.86083 395,430"
       id="path10546" />
    <path
       style="fill:none;stroke:#000000;stroke-width:8.1;stroke-linecap:butt;stroke-linejoin:miter;stroke-opacity:1;stroke-miterlimit:4;stroke-dasharray:none"
       d="m 420,425 c -11.40202,15.23934 -3.46512,27.30345 15,15"
       id="path10548" />
    <path
       style="fill:#241c1c;fill-opacity:1;stroke:none;stroke-width:8.1;stroke-linecap:round;stroke-miterlimit:4;stroke-dasharray:none"
       id="path10857"
       d="m 75.16604,127.86868 c 7.387859,-2.15404 14.778662,-4.28401 22.28634,-5.99231 2.87636,-0.65449 5.76929,-1.2339 8.65393,-1.85085 20.25847,-3.8224 40.85751,-5.41401 61.42925,-6.3044 4.63244,-0.2005 9.26779,-0.3268 13.90169,-0.49019 22.63794,-0.76188 45.28679,-0.55278 67.92183,0.13272 8.73662,0.29748 17.47277,0.61096 26.2077,0.95494 1.07498,0.0384 2.14959,0.0956 3.22538,0.10607 0.19735,0.0112 0.39727,0.008 0.5926,-0.0224 0,0 -0.11331,-0.0173 -0.11331,-0.0173 v 0 c -0.076,-0.007 -0.54753,-0.0177 -0.18708,-0.007 -1.12754,0.01 -2.25418,-0.0483 -3.38095,-0.0809 -8.76875,-0.29994 -17.53548,-0.65659 -26.30482,-0.93995 -22.66136,-0.68638 -45.33662,-0.89437 -68.00088,-0.1327 -4.6339,0.16342 -9.26926,0.28973 -13.9017,0.49026 -20.57179,0.89051 -41.17088,2.4823 -61.42934,6.30503 -2.88465,0.61699 -5.77758,1.19643 -8.653946,1.85096 -7.519792,1.71115 -14.917442,3.85783 -22.324934,5.98718 0,0 0.07824,0.0104 0.07824,0.0104 z" />
    <path
       style="fill:#c8b7b7;stroke:none;stroke-width:1.21803px;stroke-linecap:butt;stroke-linejoin:miter;stroke-opacity:1"
       d="m 140,111.11155 c 2.76797,-27.261631 22.65378,-71.375673 45.91837,-85.466525 47.83315,-28.9714891 106.84291,-32.5325662 158.31878,-17.0227012 15.72233,4.7371952 31.85704,8.1510942 47.37995,13.6813382 5.5194,1.966359 9.51552,5.898239 14.67385,8.353409 1.042,0.49595 4.30907,1.324379 3.18121,1.324379 C 353.8649,31.98145 284.70528,11.001125 265,85"
       id="path10896" />
    <path
       style="fill:#c83737;stroke:none;stroke-width:1px;stroke-linecap:butt;stroke-linejoin:miter;stroke-opacity:1"
       d="m 100,140 c 52.53774,-16.49229 109.94071,-22.6377 165.11869,-27.90161 14.1541,-1.35028 28.27998,-1.65422 42.48832,-1.65422 16.81618,0 14.8296,2.52884 18.98505,-14.103033 1.48167,-5.930253 7.60101,-19.900289 5.12398,-26.743604 -3.65086,-10.086278 -35.80487,-6.24747 -42.38257,-6.106116 -35.73939,0.768034 -160.2202,10.770622 -188.09239,39.461243 -6.516303,6.70765 -27.220793,40.20896 -6.44305,37.8339 C 101.62045,140.00671 107.94482,137.10081 110,135"
       id="path10894" />
    <path
       style="fill:#c83737;stroke:none;stroke-width:1px;stroke-linecap:butt;stroke-linejoin:miter;stroke-opacity:1"
       d="m 420,25 c -2.35379,-3.082948 -13.05103,-1.059238 -14.00677,4.962755 -0.99783,6.287176 2.40699,12.164848 7.78901,15.276939 C 442.43577,61.808263 447.23933,21.292537 420,25 Z"
       id="path10904" />
    <path
       style="fill:none;stroke:#000000;stroke-width:8.1;stroke-linecap:butt;stroke-linejoin:miter;stroke-opacity:1;stroke-miterlimit:4;stroke-dasharray:none"
       d="m 405,350 c 5.35219,0.74361 13.71856,0.71296 17.50544,-4.14745 1.59162,-2.04281 1.46748,-5.04114 0.31683,-7.24006 -7.65988,-14.63809 -43.92886,23.22973 -5.50767,22.58701 2.59245,-0.0434 5.19021,-0.49471 7.6854,-1.1995"
       id="path12184" />
  </g>
</svg>
